<?xml version="1.0" encoding="utf-8"?>
<!-- Generator: Adobe Illustrator 23.1.0, SVG Export Plug-In . SVG Version: 6.00 Build 0)  -->
<svg version="1.1" id="ea02ba7f-3a41-458b-a9ee-53c1e5920f6c"
	 xmlns="http://www.w3.org/2000/svg" xmlns:xlink="http://www.w3.org/1999/xlink" x="0px" y="0px" viewBox="0 0 579.2 563.5"
	 style="enable-background:new 0 0 579.2 563.5;" xml:space="preserve">
<style type="text/css">
	.st0{fill:#F2F2F2;}
	.st1{fill:#FFFFFF;}
	.st2{fill:#F0F0F0;}
	.st3{fill:#CACACA;}
	.st4{fill:#6C63FF;}
	.st5{fill:#FFB6B6;}
	.st6{fill:#2F2E41;}
	.st7{fill:#3F3D56;}
</style>
<path class="st0" d="M223.6,513.2l-15.1,13.9l12-20.1c-9.4-17.1-24.9-31.9-24.9-31.9s-32,30.7-32,54.8s14.3,32.6,32,32.6
	c17.7,0,32-8.4,32-32.6C227.7,524.6,226.1,518.9,223.6,513.2z"/>
<path class="st1" d="M204.7,527.9v1.2c-0.1,13.8-2.4,24.6-7,32.2c-0.1,0.1-0.1,0.2-0.2,0.3l-0.5-0.3l-0.5-0.3
	c5.1-8.2,6.9-19.8,6.9-31.9c0-0.4,0-0.8,0-1.2c0-5.1-0.3-10.3-0.8-15.3c0-0.4-0.1-0.8-0.1-1.2c-0.7-6.6-1.7-12.9-2.7-18.4
	c-0.1-0.4-0.1-0.8-0.2-1.2c-1.8-9.3-3.6-16-4-17.5c0-0.2-0.1-0.3-0.1-0.3l0.6-0.2l0,0l0.6-0.2c0,0,0.1,0.4,0.3,1
	c0.6,2.3,2.3,8.7,3.9,17c0.1,0.4,0.1,0.8,0.2,1.2c0.8,4.5,1.7,9.4,2.3,14.7c0.2,1.3,0.3,2.6,0.4,3.9c0,0.4,0.1,0.8,0.1,1.2
	C204.4,518.1,204.7,523.1,204.7,527.9z"/>
<path class="st1" d="M200.8,491.8c-0.4,0.1-0.8,0.1-1.2,0.1c-1.1,0.1-2.2,0.2-3.3,0.2c-4.7,0-9.4-1-13.7-3.1
	c-0.2,0.3-0.5,0.6-0.7,0.9c4.5,2.2,9.4,3.3,14.4,3.3c1.2,0,2.4-0.1,3.5-0.2c0.4,0,0.8-0.1,1.2-0.2c3.3-0.5,6.4-1.4,9.4-2.8
	c-0.3-0.3-0.5-0.6-0.7-1C206.8,490.4,203.8,491.3,200.8,491.8z"/>
<path class="st1" d="M203.7,511.5c-0.4,0-0.8,0-1.2,0c-0.1,0-0.3,0-0.4,0c-10.4,0-20.1-5.1-26.1-13.6c-0.2,0.3-0.5,0.7-0.7,1
	c6.2,8.6,16.2,13.8,26.8,13.8c0.2,0,0.3,0,0.5,0c0.4,0,0.8,0,1.2,0c6.3-0.3,12.3-2.4,17.5-6.1c-0.2-0.3-0.4-0.7-0.6-1
	C215.8,509.1,209.8,511.2,203.7,511.5z"/>
<path class="st1" d="M204.7,527.9c-0.4,0-0.8,0.1-1.2,0.1c-0.4,0-0.9,0-1.3,0c-14.1,0-26.6-9.3-30.5-22.9c-0.3,0.5-0.5,0.9-0.8,1.4
	c4.5,13.5,17.1,22.7,31.3,22.7c0.4,0,0.9,0,1.3,0c0.4,0,0.8,0,1.2-0.1c8.3-0.7,16.1-4.4,21.7-10.6c-0.1-0.4-0.3-0.9-0.4-1.3
	C220.6,523.4,212.9,527.2,204.7,527.9z"/>
<rect x="17.4" y="68.1" class="st2" width="529.3" height="280.4"/>
<path class="st1" d="M546.7,120.6v-2.8h-103V68.1h-2.8v49.7h-103V68.1h-2.8v49.7h-103V68.1h-2.8v49.7h-103V68.1h-2.8v49.7H17.4v2.8
	h106.2v55H17.4v2.8h106.2v55H17.4v2.8h106.2v54.9H17.4v2.8h106.2v54.8h2.8v-54.8h103v54.8h2.8v-54.8h103v54.8h2.8v-54.8h103v54.8
	h2.8v-54.8h103v-2.8h-103V236h103v-2.8h-103v-54.9h103v-2.8h-103v-55L546.7,120.6z M229.3,290.9h-103V236h103V290.9z M229.3,233.2
	h-103v-54.9h103V233.2z M229.3,175.5h-103v-55h103V175.5z M335.1,290.9h-103V236h103V290.9z M335.1,233.2h-103v-54.9h103V233.2z
	 M335.1,175.5h-103v-55h103V175.5z M440.9,290.9h-103V236h103V290.9z M440.9,233.2h-103v-55h103V233.2z M440.9,175.5h-103v-55h103
	V175.5z"/>
<rect x="146.8" y="133.9" class="st3" width="35.4" height="34.3"/>
<rect x="472.8" y="244.9" class="st3" width="35.4" height="34.3"/>
<rect x="157.8" y="301.9" class="st3" width="35.4" height="34.3"/>
<rect x="168.3" y="127.6" class="st4" width="35.4" height="34.3"/>
<polygon class="st5" points="370.1,270.1 412.1,232.6 424.5,238.8 374.1,291.6 "/>
<circle class="st5" cx="417.7" cy="235.5" r="10"/>
<polygon class="st5" points="330.8,551.9 320.9,551.9 316.1,513.5 330.8,513.5 "/>
<path class="st6" d="M333.3,561.5l-32.1,0v-0.4c0-6.9,5.6-12.5,12.5-12.5h0l19.6,0L333.3,561.5z"/>
<polygon class="st5" points="294.8,551.9 284.9,551.9 280.1,513.5 294.8,513.5 "/>
<path class="st6" d="M297.3,561.5l-32.1,0v-0.4c0-6.9,5.6-12.5,12.5-12.5h0l19.6,0L297.3,561.5z"/>
<path class="st6" d="M339.1,332.6c0,0,25-2,17,42S331.6,539,331.6,539l-15,2.1l-8.9-160.6L301,541.1l-19.1-2.1l-18.7-172.4
	c0,0-6-13.9,0-23.4S339.1,332.6,339.1,332.6z"/>
<path class="st7" d="M323.1,223.6l6.9-3.7c0,0,17.1-1.5,24.1,18.6l18.5,28l30-26l13,9l-37.8,45.1l-15.7,2l-34-44L323.1,223.6z"/>
<path class="st6" d="M298,142.5c-28.5,0-36.5,31.3-36.5,49c0,17.7,16.3,15,36.5,15c8.7,0,16.6,0.5,22.9-0.3l3-7.3l2.4,6.1
	c5.1-1.9,8.2-5.7,8.2-13.4C334.5,173.8,327.5,142.5,298,142.5z"/>
<circle class="st5" cx="297.8" cy="181.9" r="24.6"/>
<path class="st6" d="M269.5,179.5L269.5,179.5h9.7l4.3-12l0.9,12h4.6l2.5-7l0.5,7h34.5l0,0c0-14.4-11.6-26-26-26h-5
	C281.1,153.5,269.5,165.1,269.5,179.5z"/>
<rect x="398.3" y="197.6" class="st4" width="35.4" height="34.3"/>
<path class="st7" d="M346.9,323.6c-3.8,0-15.1-67.4-15.1-67.4l-1.7-36.3l-12.4-0.4v-0.8c0-3.4-2.8-6.2-6.2-6.2h-23.6
	c-3.3,0-6,2.5-6.2,5.8L272,218l-16.9,53.6c0,0,15.5,49.8,8,71.7c0,0,73,6.3,87-7.6C350.2,335.6,350.7,323.5,346.9,323.6z"/>
<path class="st7" d="M276.1,224.6L272,218c0,0-13.6-3.4-19.2,5.7s-22.1,57.9-22.1,57.9l17,6l19.3-27L276.1,224.6z"/>
<rect x="283.3" y="259.6" class="st4" width="35.4" height="34.3"/>
<path class="st5" d="M256.1,272l-12.3-1.3l0,0c-2.8,6-0.2,13.2,5.8,16.1c0.9,0.4,1.8,0.7,2.8,0.9l48.7,9.7l-5.1-15.7L256.1,272z"/>
<circle class="st5" cx="301.3" cy="287.6" r="10"/>
<path class="st7" d="M288.8,297.9l-37.1-8.5c-5.5-1.3-9.9-5.3-11.6-10.6l-1.5-4.6l9.6-7.6l44.2,12.3L288.8,297.9z"/>
<path class="st3" d="M497.4,563.5h-381c-0.6,0-1-0.4-1-1s0.4-1,1-1h381c0.6,0,1,0.4,1,1S498,563.5,497.4,563.5z"/>
</svg>
