<?xml version="1.0" encoding="utf-8"?>
<!-- Generator: Adobe Illustrator 23.1.0, SVG Export Plug-In . SVG Version: 6.00 Build 0)  -->
<svg version="1.1" id="Layer_1" focusable="false" xmlns="http://www.w3.org/2000/svg" xmlns:xlink="http://www.w3.org/1999/xlink"
	 x="0px" y="0px" viewBox="0 0 496 512" style="enable-background:new 0 0 496 512;" xml:space="preserve">
<style type="text/css">
	.st0{fill:#FFFFFF;}
</style>
<path class="st0" d="M248,8C111,8,0,119,0,256s111,248,248,248s248-111,248-248S385,8,248,8z M268.1,206.1
	c4-25.2,34.2-42.1,59.9-42.1s55.9,16.9,59.9,42.1c1.7,11.1-11.4,18.3-19.8,10.8l-9.5-8.5c-14.8-13.2-46.2-13.2-61,0L288,217
	C279.6,224.4,266.4,217.3,268.1,206.1z M168,160c17.7,0,32,14.3,32,32s-14.3,32-32,32s-32-14.3-32-32S150.3,160,168,160z M398.9,306
	C390,377,329.4,432,256,432h-16c-73.4,0-134-55-142.9-126c-1.2-9.5,6.3-18,15.9-18h270C392.6,288,400.1,296.4,398.9,306z"/>
</svg>
